<svg preserveAspectRatio="none" width="100%" height="100%" overflow="visible" style="display: block;" viewBox="0 0 24 24" fill="none" xmlns="http://www.w3.org/2000/svg">
<g id="Today">
<path id="Vector (Stroke)" fill-rule="evenodd" clip-rule="evenodd" d="M4.11775 6.03732C4.1177 6.03729 4.11885 6.03673 4.12134 6.03573C4.11904 6.03685 4.1178 6.03735 4.11775 6.03732ZM4.38462 6V9.75H19.6154V6H4.38462ZM19.8823 6.03732C19.8822 6.03735 19.881 6.03685 19.8787 6.03573C19.8811 6.03673 19.8823 6.03729 19.8823 6.03732ZM19.8823 9.71268C19.8823 9.71272 19.8811 9.71328 19.8787 9.71427C19.881 9.71314 19.8822 9.71264 19.8823 9.71268ZM4.11775 9.71268C4.1178 9.71265 4.11904 9.71315 4.12134 9.71427C4.11885 9.71327 4.1177 9.71271 4.11775 9.71268ZM3.66638 4.61899C3.88286 4.53691 4.13682 4.5 4.38462 4.5H19.6154C19.8632 4.5 20.1171 4.53691 20.3336 4.61899C20.4387 4.65882 20.573 4.72347 20.6947 4.8325C20.8119 4.93758 21 5.16356 21 5.5125V10.2375C21 10.5864 20.8119 10.8124 20.6947 10.9175C20.573 11.0265 20.4387 11.0912 20.3336 11.131C20.1171 11.2131 19.8632 11.25 19.6154 11.25H4.38462C4.13682 11.25 3.88286 11.2131 3.66638 11.131C3.56133 11.0912 3.42697 11.0265 3.30535 10.9175C3.18813 10.8124 3 10.5864 3 10.2375V5.5125C3 5.16356 3.18813 4.93758 3.30535 4.8325C3.42697 4.72347 3.56133 4.65882 3.66638 4.61899Z" fill="var(--fill-0, #0B1118)"/>
<path id="Vector (Stroke)_2" fill-rule="evenodd" clip-rule="evenodd" d="M3 14.25C3 13.8358 3.30996 13.5 3.69231 13.5H20.3077C20.69 13.5 21 13.8358 21 14.25C21 14.6642 20.69 15 20.3077 15H3.69231C3.30996 15 3 14.6642 3 14.25Z" fill="var(--fill-0, #0B1118)"/>
<path id="Vector (Stroke)_3" fill-rule="evenodd" clip-rule="evenodd" d="M3 18.75C3 18.3358 3.30996 18 3.69231 18H20.3077C20.69 18 21 18.3358 21 18.75C21 19.1642 20.69 19.5 20.3077 19.5H3.69231C3.30996 19.5 3 19.1642 3 18.75Z" fill="var(--fill-0, #0B1118)"/>
</g>
</svg>
