<svg preserveAspectRatio="none" width="100%" height="100%" overflow="visible" style="display: block;" viewBox="0 0 24 24" fill="none" xmlns="http://www.w3.org/2000/svg">
<g id="Backstory">
<g id="Vector">
<path d="M5 19.5V21H19V19.5H5ZM4.5 19V5C4.5 4.72386 4.72386 4.5 5 4.5H19C19.2761 4.5 19.5 4.72386 19.5 5V19C19.5 19.2761 19.2761 19.5 19 19.5V21L19.2041 20.9893C20.1457 20.8938 20.8938 20.1457 20.9893 19.2041L21 19V5C21 3.89543 20.1046 3 19 3H5C3.89543 3 3 3.89543 3 5V19C3 20.0357 3.78722 20.887 4.7959 20.9893L5 21V19.5C4.72386 19.5 4.5 19.2761 4.5 19Z" fill="#222222"/>
<path d="M10.1426 19.5003V21.0003L19 21V19.5L10.1426 19.5003ZM9.64258 19.0003V10.1429C9.64258 9.86681 9.86656 9.64301 10.1426 9.64286H19C19.2761 9.64286 19.5 9.86672 19.5 10.1429V19C19.5 19.2761 19.2761 19.5 19 19.5V21L19.2041 20.9893C20.1457 20.8938 20.8938 20.1457 20.9893 19.2041L21 19V10.1429C21 9.03829 20.1046 8.14286 19 8.14286H10.1426L9.93848 8.1536C8.92993 8.25599 8.14258 9.1073 8.14258 10.1429V19.0003L8.15332 19.2044C8.24888 20.1457 8.99712 20.894 9.93848 20.9895L10.1426 21.0003V19.5003C9.86666 19.5001 9.64273 19.2762 9.64258 19.0003Z" fill="#222222"/>
<path d="M15.2861 19.4996V20.9996L19 21V19.5L15.2861 19.4996ZM14.7861 18.9996V15.2857C14.7861 15.0096 15.01 14.7857 15.2861 14.7857H19C19.2761 14.7857 19.5 15.0096 19.5 15.2857V19C19.5 19.2761 19.2761 19.5 19 19.5V21C20.1046 21 21 20.1046 21 19V15.2857C21 14.2501 20.2128 13.3987 19.2041 13.2965L19 13.2857H15.2861C14.1816 13.2857 13.2861 14.1811 13.2861 15.2857V18.9996C13.2861 20.1042 14.1816 20.9996 15.2861 20.9996V19.4996C15.01 19.4996 14.7861 19.2757 14.7861 18.9996Z" fill="#222222"/>
</g>
</g>
</svg>
