<svg preserveAspectRatio="none" width="100%" height="100%" overflow="visible" style="display: block;" viewBox="0 0 202 18.0357" fill="none" xmlns="http://www.w3.org/2000/svg">
<g id="02-Normal/Light Mode">
<path id="wsj logo" fill-rule="evenodd" clip-rule="evenodd" d="M5.58596 16.1847C5.58596 16.9797 5.81229 17.133 6.31582 17.2619L7.0958 17.4415V17.8007H1.91236V17.4415L2.56665 17.2882C3.06981 17.1601 3.29651 16.9027 3.29651 16.1854V0.641264H2.74285C1.18288 0.641264 0.553657 3.23202 0.37746 5.97645H0V0.128749H8.8821V5.97645H8.50464C8.32845 3.2324 7.69959 0.641639 6.13962 0.641639H5.58596V16.1847ZM9.43576 17.4415L9.98942 17.2875C10.4929 17.1594 10.7193 16.9027 10.7193 16.1847V1.7189C10.7193 1.00048 10.4929 0.769768 9.98942 0.641264L9.43576 0.487584V0.128373H14.3424V0.487584L13.7636 0.641264C13.2856 0.769768 13.0087 0.974924 13.0087 1.69297V8.43871H16.8084V1.69297C16.8084 0.974924 16.5316 0.769768 16.0535 0.641264L15.4747 0.487584V0.128373H20.3814V0.487584L19.8277 0.641264C19.3249 0.769768 19.0982 1.00048 19.0982 1.7189V16.1591C19.0982 16.8772 19.3249 17.1601 19.8277 17.2882L20.3814 17.4415V17.8007H15.4747V17.4415L16.0535 17.3138C16.5312 17.1857 16.808 16.9031 16.808 16.1854V9.02862H13.0087V16.1847C13.0087 16.9027 13.2856 17.1849 13.7636 17.313L14.3424 17.4415V17.8H9.43576V17.4415ZM24.508 17.2879H26.2441C28.5085 17.2879 28.9365 14.6715 29.2384 11.953H29.6159V17.8H20.935V17.4415L21.4887 17.2879C21.9918 17.1594 22.2182 16.9027 22.2182 16.185V1.74445C22.2182 1.0264 21.9918 0.769768 21.4887 0.641264L20.935 0.487584V0.128373H29.3641V5.97645H28.9866C28.7098 3.23202 28.1816 0.641264 26.2441 0.641264H24.508V8.36168L25.313 8.33613C26.3949 8.2591 26.7974 7.30997 27.0743 5.07843H27.4517V12.2085H27.0743C26.8479 9.41301 26.42 8.97677 25.288 8.89974L24.508 8.87419V17.2879ZM34.9958 2.48842C34.6684 0.9753 34.4672 0.744218 33.9894 0.615713L33.5114 0.487584V0.128373H38.2167V0.487584L37.8392 0.564236C37.0338 0.743842 37.1094 1.56484 37.3357 2.66765L39.3236 12.7218L40.783 4.71921L40.2548 1.97478C40.0535 1.0001 39.9779 0.692365 39.4748 0.564236L39.1475 0.487209V0.127997H43.7525V0.487209L43.1989 0.589787C42.3684 0.743842 42.4941 1.66705 42.6954 2.66728L44.6077 12.7222L46.495 3.20609C46.847 1.23118 46.6712 0.743842 45.9163 0.590162L45.3881 0.487584V0.128373H48.835V0.487584L48.3573 0.615713C47.7531 0.769768 47.6023 1.25711 47.2499 2.97539L44.1801 17.9033H43.5258L41.1608 6.25864L39.0218 17.9033H38.1913L34.9958 2.48842ZM59.6044 17.2879H60.6107C62.7494 17.2879 63.3786 14.6963 63.63 11.953H64.0075V17.8H51.1499V17.4415L51.6781 17.3382C52.76 17.1338 52.76 16.8261 52.4831 15.2863L52.005 12.9781H48.9102L48.5832 14.7227C48.2058 16.6976 48.407 17.1845 49.1619 17.3382L49.6902 17.4415V17.8H46.1928V17.4415L46.6207 17.3134C47.2997 17.1083 47.4759 16.6976 47.8283 14.9534L50.8981 0.025419H51.653L54.8736 15.4403C55.2009 17.0308 55.3517 17.3638 56.2574 17.3638C57.0374 17.3638 57.3142 16.9531 57.3142 16.1843V1.71852C57.3142 1.00048 57.0879 0.769392 56.5847 0.641264L56.031 0.487209V0.128373H61.0132V0.513135L60.3335 0.666814C59.8307 0.769392 59.604 1.00048 59.604 1.71852L59.6044 17.2879ZM49.0112 12.3885H51.8797L50.42 5.10473L49.0112 12.3885ZM68.1341 17.2879H69.1408C71.2795 17.2879 71.9087 14.6963 72.1601 11.953H72.5375V17.8H64.5611V17.4415L65.1148 17.2879C65.6183 17.1594 65.8446 16.9027 65.8446 16.185V1.7189C65.8446 1.00048 65.6183 0.769768 65.1148 0.641264L64.5611 0.487584V0.128373H69.5433V0.513135L68.8639 0.666814C68.3608 0.769392 68.1341 1.00048 68.1341 1.71852V17.2879ZM80.7425 17.9026C79.2832 17.9026 78.78 16.8772 78.3023 16.8772C78.0254 16.8772 77.6981 16.9542 77.4467 17.8007H77.1448V11.9523H77.5223C77.8242 15.2611 79.0321 17.3382 80.7178 17.3382C81.8502 17.3382 82.6302 16.2865 82.6302 14.3886C82.6302 10.3873 77.0191 8.66904 77.0191 4.2315C77.0191 1.84627 78.2271 0.0250433 80.3658 0.0250433C81.7495 0.0250433 82.0514 0.948247 82.6302 0.948247C82.9575 0.948247 83.1838 0.691989 83.3095 0.127621H83.6114V5.9757H83.2339C82.9321 3.02611 82.1521 0.589411 80.34 0.589411C79.0823 0.589411 78.8305 1.87145 78.8305 2.74393C78.8305 6.56562 84.4415 7.87359 84.4415 13.2084C84.4408 15.9284 82.9814 17.9026 80.7425 17.9026ZM90.0017 16.1847C90.0017 16.9027 90.2284 17.1594 90.7315 17.2875L91.3858 17.4415V17.8H86.3285V17.4415L86.9827 17.2875C87.4859 17.1594 87.7126 16.9027 87.7126 16.1847V0.641264H87.1589C85.599 0.641264 84.9697 3.23202 84.7936 5.97645H84.4161V0.128749H93.2989V5.97645H92.9211C92.7449 3.2324 92.1164 0.641639 90.5561 0.641639H90.0024V16.1847H90.0017ZM93.8519 17.4415L94.4055 17.2875C94.9087 17.1594 95.135 16.9027 95.135 16.1847V1.7189C95.135 1.00048 94.9087 0.769768 94.4055 0.641264L93.8519 0.487584V0.128373H98.6578C100.797 0.128373 102.784 1.51337 102.784 4.41148C102.784 6.6434 101.753 8.208 99.6641 8.77237C101.954 9.20785 101.954 10.3114 102.18 13.2603L102.331 15.5173C102.407 16.7742 102.457 17.0568 102.81 17.0568C103.187 17.0568 103.338 16.185 103.338 15.3385V14.9023H103.766V15.4922C103.766 16.9027 103.463 17.9029 102.03 17.9029C100.62 17.9029 99.9664 17.0823 99.8654 14.1331L99.7397 10.8499C99.6896 9.28526 99.3121 9.05455 98.5823 9.05455H97.3998V16.185C97.3998 16.9027 97.6261 17.1853 98.1296 17.3134L98.6833 17.4415V17.8H93.8519V17.4415ZM97.3994 8.54128H98.2299C99.6391 8.54128 100.343 8.15652 100.343 4.74552C100.343 1.33414 99.4124 0.641639 98.4061 0.641639H97.3998L97.3994 8.54128ZM107.489 17.2879H109.225C111.49 17.2879 111.918 14.6715 112.219 11.953H112.597V17.8H103.916V17.4415L104.47 17.2879C104.973 17.1594 105.199 16.9027 105.199 16.185V1.74445C105.199 1.0264 104.973 0.769768 104.47 0.641264L103.916 0.487584V0.128373H112.346V5.97645H111.968C111.692 3.23202 111.163 0.641264 109.225 0.641264H107.489V8.36168L108.294 8.33613C109.376 8.2591 109.779 7.30997 110.056 5.07843H110.434V12.2085H110.056C109.829 9.41301 109.402 8.97677 108.269 8.89974L107.489 8.87419V17.2879ZM116.825 17.2879H118.561C120.825 17.2879 121.253 14.6715 121.555 11.953H121.932V17.8H113.252V17.4415L113.805 17.2879C114.308 17.1594 114.535 16.9027 114.535 16.185V1.74445C114.535 1.0264 114.308 0.769768 113.805 0.641264L113.252 0.487584V0.128373H121.681V5.97645H121.304C121.027 3.23202 120.499 0.641264 118.561 0.641264H116.825V8.36168L117.63 8.33613C118.711 8.2591 119.114 7.30997 119.391 5.07843H119.769V12.2085H119.391C119.165 9.41301 118.737 8.97677 117.605 8.89974L116.825 8.87419V17.2879ZM128.072 16.1847C128.072 16.9797 128.299 17.133 128.802 17.2619L129.582 17.4415V17.8007H124.398V17.4415L125.053 17.2882C125.555 17.1601 125.783 16.9027 125.783 16.1854V0.641264H125.229C123.669 0.641264 123.04 3.23202 122.864 5.97645H122.486V0.128749H131.369V5.97645H130.991C130.815 3.2324 130.186 0.641639 128.626 0.641639H128.072V16.1847ZM141.888 13.7224C141.888 16.4672 140.528 17.9026 138.441 17.9026C136.554 17.9026 135.447 16.3384 135.472 14.6201C135.497 13.2866 136.453 12.62 137.233 12.7222C137.786 12.7988 138.34 13.2095 138.265 14.1072C138.189 15.3896 136.83 15.3385 136.78 16.1336C136.73 16.6209 137.359 17.339 138.163 17.339C139.573 17.339 139.573 15.5177 139.573 14.1331V1.69297C139.573 0.974924 139.346 0.769768 138.793 0.641264L138.164 0.487584V0.128373H143.121V0.487584L142.568 0.641264C142.065 0.769768 141.888 1.00048 141.888 1.7189L141.888 13.7224ZM147.751 17.9289C144.807 17.9289 143.372 13.8765 143.372 8.95122C143.372 4.05264 144.757 0.000244141 147.751 0.000244141C150.72 0.000244141 152.154 4.05264 152.154 8.95122C152.154 13.8765 150.796 17.9289 147.751 17.9289ZM147.751 0.590162C146.493 0.590162 145.864 1.61594 145.864 8.84939C145.864 16.3128 146.442 17.3645 147.751 17.3645C149.059 17.3645 149.663 16.3128 149.663 8.79754C149.663 1.61632 149.059 0.590162 147.751 0.590162ZM162.118 17.4415L162.672 17.2875C163.175 17.1594 163.402 16.9027 163.402 16.1847V1.7189C163.402 0.872346 163.024 0.564612 162.143 0.564612C161.036 0.564612 160.76 1.0775 160.76 2.53952V13.6713C160.76 16.4413 159.803 17.9289 157.464 17.9289C155.048 17.9289 153.639 16.4413 153.639 13.7483V1.7189C153.639 1.00048 153.463 0.769768 152.96 0.641264L152.406 0.487584V0.128373H157.414V0.487584L156.734 0.641264C156.181 0.769768 155.954 0.974924 155.954 1.69297V13.9276C155.954 16.4154 156.658 17.0568 157.942 17.0568C159.452 17.0568 160.081 16.1847 160.081 13.6709V3.46273C160.081 1.30821 160.056 0.795319 159.15 0.590162L158.672 0.487584V0.128373H166.925C169.064 0.128373 171.052 1.51337 171.052 4.41148C171.052 6.6434 170.02 8.208 167.932 8.77237C170.221 9.20785 170.221 10.3114 170.448 13.2603L170.599 15.5173C170.675 16.7742 170.724 17.0568 171.077 17.0568C171.455 17.0568 171.606 16.185 171.606 15.3385V14.9023H172.033V15.4922C172.033 16.9027 171.731 17.9029 170.297 17.9029C168.888 17.9029 168.234 17.0823 168.133 14.1331L168.007 10.8499C167.957 9.28526 167.58 9.05455 166.85 9.05455H165.668V16.185C165.668 16.9027 165.894 17.1853 166.397 17.3134L166.951 17.4415V17.8H162.119V17.4415H162.118ZM165.666 8.54128H166.497C167.905 8.54128 168.61 8.15652 168.61 4.74552C168.61 1.33414 167.679 0.641639 166.672 0.641639H165.666V8.54128ZM172.485 0.590162L172.133 0.487584V0.128373H175.429L179.933 11.7727V3.3857C179.933 1.48781 179.983 0.820869 178.65 0.590162L178.222 0.487584V0.128373H181.946V0.487584L181.594 0.590162C180.512 0.84642 180.588 1.74445 180.588 3.53975V17.8004H179.783L174.146 3.66826V14.543C174.146 16.6205 174.146 17.2112 175.757 17.4415V17.8H172.133V17.4415L172.586 17.3645C173.517 17.1842 173.492 16.2613 173.492 14.3894V2.12921C173.064 1.23156 172.888 0.743842 172.485 0.590162ZM194.628 17.2879H195.634C197.773 17.2879 198.402 14.6963 198.654 11.953H199.031V17.8H186.199V17.4415L186.727 17.3382C187.809 17.1338 187.834 16.8261 187.532 15.2863L187.054 12.9781H183.959L183.631 14.7227C183.254 16.6976 183.455 17.1845 184.21 17.3382L184.739 17.4415V17.8H181.241V17.4415L181.668 17.3134C182.348 17.1083 182.524 16.6976 182.876 14.9534L185.946 0.0257947H186.701L189.921 15.4407C190.249 17.0312 190.374 17.3638 191.281 17.3638C192.06 17.3638 192.338 16.9534 192.338 16.1847V1.71852C192.338 1.00048 192.111 0.769392 191.608 0.641264L191.054 0.487209V0.128373H196.037V0.513135L195.357 0.666814C194.854 0.769392 194.627 1.00048 194.627 1.71852L194.628 17.2879ZM184.06 12.3885H186.928L185.469 5.10435L184.06 12.3885ZM202 16.6716C202 17.3645 201.497 17.8774 200.893 17.8774C200.289 17.8774 199.786 17.3645 199.786 16.6716C199.786 15.9791 200.289 15.4662 200.893 15.4662C201.497 15.4662 202 15.9795 202 16.6716Z" fill="var(--fill-0, #222222)"/>
</g>
</svg>
